<?xml version="1.0" encoding="UTF-8" standalone="no"?>
<svg style="isolation:isolate" xmlns="http://www.w3.org/2000/svg" xmlns:xlink="http://www.w3.org/1999/xlink" viewBox="-2.842170943040401e-14 10.82922513150061 400.0000000000001 378.3415497369988">
 <path stroke="rgba(0,0,0,0)" d="m-2.8422e-14 383.26c0-6.67 11.108-64 12.991-67.05 0.67-1.08 2.337-8.11 3.702-15.62 3.186-17.51 9.059-36.33 12.516-40.1 1.487-1.62 14.823-5.47 29.637-8.56 45.514-9.48 65.564-16.79 75.474-27.48 4.72-5.1 11.85-10.42 15.86-11.81 6.36-2.22 7.28-3.63 7.28-11.19 0-4.76-1.45-10.73-3.23-13.28s-4.01-9.4-4.97-15.21c-0.95-5.82-3.73-12.47-6.17-14.78-2.44-2.32-4.43-5.27-4.43-6.56 0-1.3-2.38-5.57-5.29-9.51-4.51-6.1-5.33-10.32-5.58-28.69-0.49-35.503 2.56-51.748 12.5-66.726 14.04-21.149 41.15-35.797 66.37-35.864 9.86-0.027 14 1.116 18.14 5.005 3.13 2.936 10.47 5.847 17.6 6.974 14.19 2.243 26.96 11.254 33.15 23.406 3.12 6.109 4.11 13.852 4.12 32.009 0 13.427 1.03 24.586 2.35 25.406 6.39 3.95 0.43 31.24-9.6 43.92-3.77 4.78-6.88 10.59-6.9 12.93-0.03 2.34-2.15 8.86-4.7 14.5-8.5 18.71-5.57 37.23 6.52 41.38 2.26 0.77 7.8 6.16 12.33 11.98 4.52 5.81 10.87 11.17 14.1 11.9s17.72 5.99 32.2 11.68 27.04 10.34 27.9 10.34 6.15 2.91 11.75 6.47c10.01 6.35 15.11 14.83 15.11 25.11 0 2.77 2.18 9.22 4.86 14.34 4.3 8.24 7.22 24.04 13.15 71l1.26 9.99h-200-200l-2.8422e-14 -5.91z" fill="#fff"/>
</svg>
